<svg width="256px" height="256px" viewBox="0 0 256 256" xmlns="http://www.w3.org/2000/svg">
    <rect width="256" height="256" rx="64" fill="#2C3E50" />
    
    <path d="M 128 210 C 128 210, 30 150, 30 85 C 30 45, 65 20, 105 20 C 120 20, 128 35, 128 35 C 128 35, 136 20, 151 20 C 191 20, 226 45, 226 85 C 226 150, 128 210, 128 210 Z" fill="#FF6B6B" />
    
    <g stroke="#FFFFFF" stroke-width="8" stroke-linecap="round" stroke-linejoin="round" fill="none">
        <path d="M 128 170 L 128 100" />
        <path d="M 128 135 L 85 135 L 85 85" />
        <path d="M 128 115 L 170 115 L 170 75" />
    </g>
    
    <circle cx="128" cy="170" r="14" fill="#4ECDC4" />
    <circle cx="128" cy="100" r="14" fill="#4ECDC4" />
    <circle cx="85" cy="85" r="14" fill="#FFE66D" />
    <circle cx="170" cy="75" r="14" fill="#FFE66D" />
</svg>
